<svg xmlns="http://www.w3.org/2000/svg" viewBox="0 0 1600 900" fill="none">
  <defs>
    <linearGradient id="bg" x1="0" y1="0" x2="1600" y2="900" gradientUnits="userSpaceOnUse">
      <stop stop-color="#08131a"/>
      <stop offset="1" stop-color="#113b45"/>
    </linearGradient>
    <radialGradient id="glow1" cx="0" cy="0" r="1" gradientUnits="userSpaceOnUse" gradientTransform="translate(260 180) rotate(25) scale(420 260)">
      <stop stop-color="#10b981" stop-opacity="0.35"/>
      <stop offset="1" stop-color="#10b981" stop-opacity="0"/>
    </radialGradient>
    <radialGradient id="glow2" cx="0" cy="0" r="1" gradientUnits="userSpaceOnUse" gradientTransform="translate(1240 720) rotate(-18) scale(480 280)">
      <stop stop-color="#7ef0c5" stop-opacity="0.30"/>
      <stop offset="1" stop-color="#7ef0c5" stop-opacity="0"/>
    </radialGradient>
    <filter id="blur" x="-20%" y="-20%" width="140%" height="140%">
      <feGaussianBlur stdDeviation="32"/>
    </filter>
  </defs>
  <rect width="1600" height="900" rx="48" fill="url(#bg)"/>
  <rect width="1600" height="900" rx="48" fill="url(#glow1)"/>
  <rect width="1600" height="900" rx="48" fill="url(#glow2)"/>
  <g opacity="0.13">
    <path d="M0 686C203 576 366 538 489 572c164 46 278 177 499 134 130-26 276-116 612-136V900H0V686Z" fill="#e7fff7"/>
  </g>
  <g opacity="0.16">
    <circle cx="142" cy="122" r="3" fill="#e7fff7"/>
    <circle cx="153" cy="174" r="3" fill="#e7fff7"/>
    <circle cx="201" cy="141" r="3" fill="#e7fff7"/>
    <circle cx="1380" cy="126" r="3" fill="#e7fff7"/>
    <circle cx="1462" cy="174" r="3" fill="#e7fff7"/>
    <circle cx="1328" cy="226" r="3" fill="#e7fff7"/>
  </g>
  <g opacity="0.50">
    <rect x="622" y="354" width="356" height="268" rx="46" fill="#10b981" fill-opacity="0.22" stroke="#e7fff7" stroke-width="18"/>
    <path d="M704 356v-54c0-90 62-148 174-148s174 58 174 148v54" stroke="#e7fff7" stroke-width="22" stroke-linecap="round"/>
    <circle cx="800" cy="488" r="18" fill="#7ef0c5"/>
    <circle cx="940" cy="488" r="18" fill="#7ef0c5"/>
    <path d="M798 544c40 32 82 48 126 48 62 0 120-26 174-78" stroke="#7ef0c5" stroke-width="18" stroke-linecap="round"/>
  </g>
</svg>
